<svg xmlns="http://www.w3.org/2000/svg" xmlns:xlink="http://www.w3.org/1999/xlink" viewBox="0 0 459.76 458.64"><defs><style>.a,.b,.c{fill:none;}.a{clip-rule:evenodd;}.c,.d,.e{fill-rule:evenodd;}.d{fill:#007f60;}.e,.h{opacity:0.15;}.f{clip-path:url(#a);}.g{clip-path:url(#b);}.i{clip-path:url(#e);}.j{fill:#fff;}</style><clipPath id="a" transform="translate(-0.48 -0.6)"><polygon class="a" points="0 459.84 460.85 459.84 460.85 0 0 0 0 459.84 0 459.84"/></clipPath><clipPath id="b" transform="translate(-0.48 -0.6)"><polygon class="b" points="146.16 371.04 336.22 371.04 336.22 107.04 146.16 107.04 146.16 371.04 146.16 371.04"/></clipPath><clipPath id="e" transform="translate(-0.48 -0.6)"><polygon class="b" points="135.33 361.92 325.39 361.92 325.39 97.92 135.33 97.92 135.33 361.92 135.33 361.92"/></clipPath></defs><title>Temply_Logo</title><path class="d" d="M.48,229.92C.48,103.27,103.4.6,230.36.6S460.24,103.27,460.24,229.92,357.32,459.24,230.36,459.24.48,356.57.48,229.92Z" transform="translate(-0.48 -0.6)"/><path class="e" d="M230.36,21.45c-115.42,0-209,93.33-209,208.47s93.56,208.47,209,208.47,209-93.33,209-208.47-93.57-208.47-209-208.47Zm0-20.85c127,0,229.88,102.67,229.88,229.32S357.32,459.24,230.36,459.24.48,356.57.48,229.92,103.4.6,230.36.6Z" transform="translate(-0.48 -0.6)"/><g class="f"><g class="g"><path class="h" d="M295.44,370.76H179.19c-7.11,0-17.27-2.61-25.33-15-13.19-20.32-9-47.89,9.78-64.09l63.83-55.1c3.3-2.95,60.73-54.18,76.16-67.52,10.1-8.74,12.48-23.42,5.51-34.17-3-4.52-5.17-4.52-6-4.52H186.9a17.2,17.2,0,0,0-15.13,8.13c-3.38,5.55-3.39,12.46,0,19a80.35,80.35,0,0,0,5.75,10.08c15.84,20.89,22,25.6,33.3,34.15l.54.4a6.77,6.77,0,0,1,1.31,9.49l0,.06L206.84,219a6.81,6.81,0,0,1-9.51,1.23l-.46-.34c-12.06-9.09-20-15.09-37.78-38.55-1.21-1.6-3.35-4.71-7.84-13.38-7.06-13.55-6.79-29.14.8-41.53A40.35,40.35,0,0,1,186.9,107.3H303.15c7.1,0,17.26,2.62,25.33,15,13.19,20.32,9,47.87-9.78,64.07-15.4,13.3-75.34,66.8-76,67.34l-.13.12-63.86,55.17c-10.12,8.74-12.48,23.42-5.51,34.16,2.93,4.53,5.13,4.53,5.95,4.53H295.44a17.2,17.2,0,0,0,15.13-8.13c3.38-5.55,3.39-12.46,0-19a82.8,82.8,0,0,0-5.75-10.07C289,289.65,282.75,285,271.49,276.41L271,276a6.76,6.76,0,0,1-1.36-9.48l.09-.12,5.8-7.39a6.81,6.81,0,0,1,9.51-1.23l.46.34c12,9.14,20,15.17,37.74,38.6,1.22,1.6,3.36,4.72,7.85,13.39,7.06,13.61,6.79,29.13-.8,41.53a40.35,40.35,0,0,1-34.82,19.12Z" transform="translate(-0.48 -0.6)"/></g></g><g class="f"><g class="f"><g class="i"><path class="j" d="M284.61,361.64H168.36c-7.1,0-17.26-2.61-25.33-15-13.19-20.32-9-47.89,9.78-64.09l63.83-55.1c3.3-2.95,60.73-54.18,76.16-67.52,10.11-8.74,12.48-23.42,5.51-34.17-3-4.52-5.17-4.52-6-4.52H176.07a17.21,17.21,0,0,0-15.13,8.13c-3.38,5.55-3.39,12.46,0,19a80.35,80.35,0,0,0,5.75,10.08c15.85,20.89,22,25.6,33.3,34.15l.54.4a6.76,6.76,0,0,1,1.31,9.49l0,.06L196,209.91a6.81,6.81,0,0,1-9.51,1.23l-.46-.34c-12.06-9.09-20-15.09-37.78-38.55-1.21-1.6-3.34-4.71-7.84-13.38-7.06-13.55-6.79-29.14.8-41.53a40.37,40.37,0,0,1,34.85-19.16H292.33c7.1,0,17.26,2.62,25.32,15,13.19,20.32,9,47.87-9.77,64.07-15.41,13.3-75.35,66.8-76,67.34l-.14.12-63.86,55.17c-10.11,8.74-12.48,23.42-5.51,34.16,2.93,4.53,5.13,4.53,6,4.53H284.61a17.19,17.19,0,0,0,15.13-8.13c3.38-5.55,3.4-12.46,0-19A84.07,84.07,0,0,0,294,301.46c-15.87-20.93-22.07-25.63-33.33-34.17l-.53-.41a6.76,6.76,0,0,1-1.36-9.48l.1-.12,5.79-7.39a6.81,6.81,0,0,1,9.51-1.23l.46.34c12,9.14,20,15.17,37.74,38.6,1.23,1.6,3.36,4.72,7.85,13.39,7.07,13.61,6.79,29.13-.8,41.53a40.35,40.35,0,0,1-34.82,19.12Z" transform="translate(-0.48 -0.6)"/></g></g></g></svg>