<?xml version="1.0" encoding="UTF-8" ?>
<!DOCTYPE svg PUBLIC "-//W3C//DTD SVG 1.1//EN" "http://www.w3.org/Graphics/SVG/1.1/DTD/svg11.dtd">
<svg width="1037pt" height="1037pt" viewBox="0 0 1037 1037" version="1.1" xmlns="http://www.w3.org/2000/svg">
<g id="#010101fc">
<path fill="#010101" opacity="1.00" d=" M 334.31 116.26 C 345.06 114.74 356.55 118.07 364.52 125.52 C 370.36 130.99 373.41 139.11 373.05 147.06 C 373.48 155.93 369.50 164.32 364.19 171.16 C 362.35 173.12 359.58 173.81 357.73 175.76 C 353.58 180.43 346.66 179.22 341.13 178.72 C 331.67 176.34 323.00 170.60 316.93 162.99 C 310.24 154.75 310.49 142.94 314.33 133.52 C 317.70 124.97 325.19 118.07 334.31 116.26 M 340.15 124.24 C 336.23 124.54 332.09 125.33 329.00 127.95 C 324.09 131.89 321.53 138.08 320.53 144.16 C 319.26 149.94 322.22 155.78 325.84 160.11 C 329.41 162.94 333.07 165.80 337.09 168.00 C 342.17 169.80 348.00 172.04 353.19 169.30 C 367.15 162.53 370.03 140.81 358.46 130.53 C 353.26 126.53 346.63 124.60 340.15 124.24 Z" />
<path fill="#010101" opacity="1.00" d=" M 87.02 141.00 C 104.06 139.10 121.25 140.53 138.20 142.49 C 166.16 145.81 193.78 151.58 220.87 159.24 C 246.12 166.89 271.34 175.50 294.37 188.58 C 299.60 192.02 305.96 194.58 308.84 200.56 C 304.84 197.23 299.60 199.11 295.02 197.57 C 267.36 191.30 239.12 187.65 210.87 186.37 C 202.31 184.93 193.58 186.20 184.97 185.26 C 172.31 183.77 159.65 186.08 146.97 185.67 C 141.28 185.30 135.71 187.06 130.01 186.57 C 119.18 187.65 108.32 188.19 97.52 189.64 C 85.61 192.23 73.99 196.37 63.30 202.25 C 61.25 203.44 58.99 204.58 57.70 206.66 C 53.56 212.98 49.20 219.51 47.93 227.11 C 46.78 231.84 47.43 236.75 47.27 241.57 C 67.32 275.85 92.14 307.04 118.04 337.05 C 128.42 348.67 138.66 360.41 149.57 371.56 C 154.98 378.08 161.23 383.81 167.13 389.87 C 180.34 403.35 193.83 416.56 207.23 429.85 C 213.52 435.15 219.19 441.12 225.15 446.79 C 230.60 451.03 235.01 456.40 240.38 460.72 C 284.61 501.58 330.41 540.80 376.83 579.22 C 378.78 581.38 380.78 578.46 382.28 577.27 C 410.48 554.17 439.45 531.84 470.61 512.82 C 487.55 502.38 504.73 492.34 521.55 481.70 C 552.12 462.20 582.65 442.51 611.59 420.63 C 620.60 413.64 629.58 406.56 637.95 398.81 C 652.75 387.85 665.83 374.82 678.76 361.74 C 690.46 348.40 701.40 334.39 713.18 321.12 C 718.58 314.06 723.83 306.88 728.80 299.51 C 699.25 294.63 669.43 291.22 639.67 288.48 C 635.52 287.48 631.21 288.49 627.05 287.57 C 621.64 286.33 616.03 287.62 610.60 286.52 C 604.42 285.29 598.08 286.69 591.90 285.49 C 585.15 284.29 578.22 285.76 571.48 284.36 C 563.66 283.44 555.72 284.67 547.95 283.15 C 529.97 282.87 511.98 282.87 494.00 283.00 C 489.45 283.09 484.85 282.64 480.36 283.55 C 475.73 284.51 470.95 283.41 466.35 284.58 C 444.30 286.39 422.35 289.49 400.30 291.39 C 390.87 292.61 381.28 293.04 371.98 295.18 C 372.00 296.29 372.03 297.40 372.07 298.51 C 373.52 300.66 374.51 303.08 375.27 305.56 C 377.53 311.59 380.06 317.52 382.32 323.56 C 382.64 324.52 382.97 325.49 383.30 326.46 C 385.30 331.81 387.26 337.18 389.27 342.53 C 390.07 344.13 390.71 345.82 391.26 347.54 C 394.44 354.48 397.25 361.61 400.73 368.41 C 401.24 369.47 401.75 370.52 402.26 371.59 C 402.96 372.91 403.63 374.25 404.28 375.60 C 413.45 393.01 423.85 409.76 435.19 425.85 C 439.01 431.12 442.42 436.78 446.98 441.47 C 446.97 442.65 446.96 443.84 446.95 445.04 C 445.18 445.11 443.35 445.19 441.78 444.23 C 438.15 442.27 434.22 441.01 430.47 439.34 C 421.05 435.34 412.67 429.38 404.09 423.88 C 380.81 407.84 358.64 390.18 337.57 371.33 C 333.93 368.70 331.08 365.19 327.69 362.27 C 321.81 357.52 316.76 351.86 311.34 346.60 C 297.95 333.30 284.80 319.53 274.66 303.54 C 268.13 293.35 263.39 280.78 266.52 268.62 C 268.81 258.74 275.82 250.96 283.06 244.28 C 297.52 232.05 316.03 226.13 334.26 222.28 C 341.77 220.75 349.29 219.22 356.93 218.56 C 361.64 216.98 366.68 217.89 371.46 216.68 C 377.93 215.18 384.69 216.36 391.14 214.76 C 399.46 213.39 407.95 214.00 416.31 213.05 C 427.47 211.07 438.86 211.49 450.14 210.71 C 468.25 207.77 486.75 209.17 504.91 206.71 C 512.93 206.07 520.97 205.66 529.02 205.44 C 539.98 204.88 550.95 204.20 561.93 204.67 C 571.96 205.03 582.01 203.08 592.00 204.39 C 597.37 204.72 602.77 203.53 608.13 204.36 C 613.04 205.26 618.03 203.81 622.94 204.82 C 661.39 206.18 699.87 210.10 737.98 216.06 C 756.85 219.40 775.87 223.01 793.74 230.16 C 806.26 234.84 819.41 241.91 825.31 254.56 C 829.09 261.83 827.84 270.13 828.00 277.99 C 826.59 289.69 823.93 301.26 820.29 312.47 C 819.96 313.48 819.64 314.50 819.33 315.52 C 818.99 316.50 818.64 317.49 818.30 318.48 C 817.40 321.19 816.48 323.89 815.28 326.48 C 806.32 350.32 791.06 371.17 774.20 390.01 C 759.10 405.90 743.59 421.50 727.05 435.88 C 682.84 475.13 634.96 510.07 585.98 543.13 C 540.12 574.19 493.06 603.62 449.01 637.26 C 527.58 698.30 608.10 757.09 693.06 808.97 C 696.97 812.34 702.39 810.59 707.07 811.00 C 723.05 810.63 739.02 811.96 754.99 811.20 C 761.93 811.01 768.88 810.91 775.83 811.06 C 774.22 807.77 775.54 804.00 774.58 800.57 C 773.60 796.74 774.37 792.74 773.44 788.92 C 772.50 784.82 773.49 780.57 772.59 776.47 C 772.02 774.01 771.98 771.49 771.97 768.99 C 766.27 725.77 758.82 682.66 747.74 640.46 C 746.94 638.16 746.34 635.82 745.75 633.47 C 743.91 628.12 742.37 622.67 740.34 617.38 C 739.82 615.73 738.83 614.14 739.03 612.37 C 739.79 610.96 741.35 610.96 742.73 610.80 C 744.58 613.53 745.05 617.15 747.70 619.31 C 752.63 623.71 758.21 627.36 762.75 632.20 C 770.53 638.37 777.21 645.78 784.25 652.77 C 788.94 657.09 792.57 662.37 797.08 666.86 C 815.88 688.50 830.11 713.66 842.65 739.32 C 847.96 751.64 853.53 763.92 857.41 776.79 C 860.93 787.63 864.26 798.58 866.13 809.85 C 866.89 816.48 868.33 823.23 866.54 829.85 C 865.02 838.42 857.91 844.59 850.59 848.51 C 844.62 851.38 838.50 853.99 832.06 855.58 C 822.78 858.52 813.20 860.53 803.58 861.97 C 799.26 863.40 794.69 863.47 790.20 863.75 C 806.82 872.49 823.90 880.37 841.00 888.13 C 869.36 900.48 898.32 911.96 928.54 918.88 C 932.46 910.11 933.27 900.43 934.33 891.02 C 934.01 880.70 935.08 870.30 933.50 860.07 C 932.06 841.09 927.01 822.61 921.38 804.50 C 914.29 783.09 904.72 762.60 894.13 742.72 C 889.30 732.38 883.84 722.26 876.74 713.27 C 872.03 707.29 867.10 701.45 863.12 694.94 C 861.95 692.73 859.66 691.54 858.13 689.66 C 857.09 687.72 856.50 685.58 855.77 683.52 C 859.53 683.91 862.46 686.48 865.64 688.26 C 883.83 698.25 900.61 710.58 916.95 723.32 C 927.60 731.83 937.90 740.79 947.32 750.66 C 959.80 762.62 971.11 775.73 981.76 789.34 C 994.15 805.46 1005.52 822.47 1014.40 840.80 C 1019.17 851.46 1023.80 862.35 1025.58 873.98 C 1026.95 879.89 1026.31 886.00 1026.43 892.01 C 1025.78 901.37 1022.18 910.76 1015.40 917.40 C 1007.76 925.53 996.85 929.81 985.99 931.37 C 978.27 932.27 970.79 934.72 963.02 935.07 C 946.90 937.00 930.64 935.49 914.62 933.56 C 881.49 929.41 849.31 919.94 817.81 909.13 C 787.69 898.65 758.26 886.21 729.46 872.54 C 726.48 871.02 723.18 872.40 720.06 872.48 C 707.06 873.56 694.08 874.93 681.04 875.52 C 668.63 875.31 656.32 877.32 643.94 877.76 C 634.94 876.77 626.02 879.39 617.04 878.34 C 612.04 878.14 607.09 879.61 602.10 878.92 C 597.07 878.18 592.06 879.83 587.03 879.24 C 583.99 878.79 580.94 879.09 577.91 879.42 C 574.24 879.81 570.58 878.68 566.92 879.30 C 562.60 880.10 558.28 878.67 553.96 879.38 C 549.62 879.99 545.29 878.62 540.95 879.46 C 491.98 878.76 442.87 879.08 393.94 873.96 C 365.15 871.10 336.64 865.97 308.45 859.50 C 302.26 857.72 295.75 856.25 290.55 852.23 C 278.40 848.59 271.86 836.32 267.19 825.46 C 267.09 824.96 266.90 823.98 266.80 823.49 C 261.87 810.22 263.13 795.88 262.98 782.01 C 262.91 778.61 264.16 775.35 264.00 771.95 C 266.33 747.17 271.37 722.32 281.72 699.54 C 294.84 669.00 313.87 640.99 337.60 617.72 C 315.00 598.93 293.11 579.34 271.32 559.66 C 266.00 554.28 259.94 549.69 254.82 544.09 C 246.35 536.94 238.77 528.83 230.89 521.05 C 216.02 506.54 202.23 491.02 188.60 475.36 C 163.13 446.65 138.87 416.84 115.84 386.13 C 106.56 374.03 97.67 361.64 89.12 349.02 C 85.07 342.93 81.51 336.53 77.18 330.63 C 69.83 319.53 64.26 307.36 56.79 296.34 C 40.67 270.88 26.15 243.33 21.97 213.10 C 21.53 208.42 21.75 203.70 21.72 199.00 C 21.49 194.55 23.64 190.44 23.64 186.01 C 24.76 173.12 32.88 161.66 43.54 154.71 C 56.40 146.16 71.82 142.43 87.02 141.00 M 54.48 156.26 C 45.78 160.86 37.54 167.34 33.35 176.48 C 31.75 181.21 31.64 186.27 30.59 191.12 C 30.13 194.07 28.98 197.00 29.43 200.02 C 31.12 208.80 33.86 217.49 38.81 225.01 C 39.45 221.65 39.58 218.13 41.05 214.98 C 43.95 208.68 47.30 202.12 53.28 198.21 C 59.49 192.60 67.86 190.63 75.49 187.70 C 87.96 182.82 101.48 182.60 114.59 180.83 C 134.02 179.07 153.54 178.79 173.03 178.07 C 190.01 178.42 206.99 179.20 223.96 179.96 C 243.25 181.48 262.54 183.88 281.36 188.43 C 281.74 188.03 282.50 187.24 282.88 186.84 C 279.98 184.23 275.81 184.04 272.44 182.30 C 265.62 179.85 259.24 176.24 252.17 174.55 C 239.74 171.09 227.85 165.77 215.11 163.43 C 202.39 160.50 189.79 157.02 176.95 154.59 C 152.72 151.12 128.51 146.82 103.98 146.16 C 87.12 146.97 70.02 149.30 54.48 156.26 M 572.97 211.99 C 550.67 212.83 528.28 212.24 506.06 214.71 C 491.71 215.83 477.28 215.94 462.94 217.21 C 452.72 218.79 442.33 218.28 432.07 219.41 C 417.36 221.01 402.55 221.30 387.88 223.18 C 380.58 224.06 372.96 223.67 365.90 225.64 C 365.12 224.42 362.06 224.62 362.35 226.37 C 351.40 225.83 340.86 229.37 330.17 231.12 C 327.08 232.14 323.16 231.68 320.86 234.30 C 319.42 233.30 318.57 233.63 318.31 235.28 C 315.19 235.06 312.31 236.68 309.39 237.57 C 300.42 241.18 292.08 246.42 284.88 252.88 C 280.31 257.82 275.37 263.02 273.81 269.79 C 273.08 272.77 271.73 275.87 272.70 278.97 C 273.76 284.97 275.75 290.89 279.25 295.91 L 278.90 296.76 L 279.49 297.66 L 280.41 297.67 C 281.14 300.16 283.04 302.11 284.43 304.27 C 284.50 304.38 284.65 304.60 284.73 304.71 C 286.44 307.38 288.41 309.85 290.33 312.38 C 290.39 312.45 290.50 312.60 290.56 312.67 C 291.75 314.07 292.62 316.05 294.48 316.68 C 293.98 318.31 294.56 318.97 296.23 318.66 C 296.90 321.04 299.01 322.63 300.46 324.54 C 309.23 334.42 318.29 344.07 328.06 352.97 C 357.97 381.09 389.73 407.28 423.62 430.48 C 427.42 433.44 431.93 435.83 435.48 439.27 C 436.05 438.66 436.63 438.06 437.22 437.47 C 433.19 433.16 429.97 428.18 426.34 423.55 C 417.97 411.77 409.61 399.97 402.49 387.38 C 398.03 379.96 394.57 372.01 390.56 364.35 C 381.51 345.47 374.65 325.56 370.30 305.08 C 364.42 292.69 364.89 278.67 362.51 265.42 C 362.23 264.08 362.76 262.76 363.00 261.47 C 364.59 263.22 364.84 265.68 365.33 267.90 C 366.02 272.03 366.81 276.14 367.66 280.24 C 368.37 283.53 368.55 287.11 370.72 289.86 C 378.72 287.23 387.21 286.85 395.50 285.73 C 421.69 283.39 447.74 279.59 473.98 277.71 C 493.29 276.55 512.67 275.56 532.01 276.59 C 572.41 278.12 612.83 279.83 653.08 283.69 C 677.74 286.38 702.35 289.54 726.82 293.60 C 729.47 294.30 733.09 294.87 734.00 297.93 C 736.20 302.07 732.11 305.79 730.02 309.01 C 723.05 319.22 715.19 328.77 706.96 337.98 C 699.17 346.88 692.01 356.34 683.93 364.98 C 670.82 379.62 655.35 391.84 640.47 404.59 C 610.12 431.64 575.66 453.38 541.92 475.85 C 520.89 489.30 499.60 502.36 478.14 515.13 C 444.49 535.16 413.47 559.17 383.14 583.85 C 387.49 590.71 395.27 594.18 401.34 599.30 C 401.43 599.37 401.61 599.51 401.70 599.58 C 406.21 603.29 410.53 607.25 415.17 610.82 C 424.57 617.90 433.50 625.58 443.02 632.52 C 471.51 611.63 500.41 591.30 529.93 571.87 C 589.99 532.05 649.91 491.63 704.83 444.80 C 721.15 431.20 736.62 416.63 752.20 402.21 C 765.84 387.41 779.93 372.84 791.15 356.04 C 797.47 346.91 802.15 336.80 806.96 326.82 C 812.23 313.63 816.55 299.98 818.98 285.96 C 820.17 279.06 821.50 272.01 820.23 265.02 C 819.50 256.65 814.01 249.26 806.81 245.18 C 797.15 239.62 786.87 234.85 775.92 232.50 C 769.85 231.06 763.95 227.91 757.63 228.21 C 757.98 226.41 754.83 226.30 754.14 227.59 C 740.86 222.88 726.48 223.23 712.91 219.63 C 712.39 219.89 711.34 220.40 710.82 220.66 C 696.37 216.93 681.25 217.62 666.67 214.60 L 665.83 215.62 C 664.58 214.75 663.37 214.78 662.19 215.70 L 661.39 214.89 C 644.31 213.06 627.11 212.88 609.96 212.07 C 605.30 211.71 600.20 210.17 595.88 212.77 C 594.54 211.82 592.40 211.83 591.08 212.77 C 585.39 210.15 578.97 211.52 572.97 211.99 M 32.46 229.71 C 34.94 236.80 38.93 243.23 41.57 250.26 C 44.04 258.53 48.81 265.84 52.27 273.71 C 54.97 280.45 59.46 286.26 62.44 292.86 C 72.02 309.79 82.84 325.96 92.43 342.87 C 95.52 349.90 101.07 355.36 105.07 361.84 C 113.09 373.10 121.23 384.29 130.07 394.94 C 141.93 410.29 153.62 425.81 166.35 440.47 C 193.64 471.82 220.06 504.14 250.67 532.39 C 276.38 556.99 303.26 580.32 329.96 603.84 C 334.02 607.21 337.71 611.10 342.39 613.65 C 354.69 624.40 367.55 634.48 380.25 644.74 C 395.14 658.45 412.21 669.47 427.90 682.21 C 442.34 693.47 457.67 703.56 472.12 714.82 C 483.79 722.82 495.45 730.83 507.08 738.89 C 511.39 742.01 515.68 745.19 520.35 747.79 C 532.54 755.52 544.12 764.21 556.72 771.26 C 564.09 776.85 572.39 780.99 580.21 785.93 C 587.16 789.49 593.34 794.40 600.45 797.71 C 606.32 800.49 611.49 804.50 617.18 807.60 C 626.12 811.75 634.22 817.47 643.17 821.60 C 649.44 825.46 656.26 828.31 662.50 832.24 C 668.02 834.66 672.98 838.17 678.59 840.40 C 686.65 845.23 695.33 848.90 703.59 853.35 C 708.27 856.24 713.17 858.82 718.31 860.81 C 725.62 863.86 732.37 868.15 739.74 871.09 C 744.87 873.20 749.57 876.23 754.80 878.11 C 762.54 881.95 770.73 884.75 778.55 888.42 C 783.84 891.20 789.77 892.39 795.19 894.88 C 806.82 900.16 819.24 903.34 831.10 908.04 C 842.24 912.05 853.85 914.41 865.10 918.09 C 876.74 922.04 888.99 923.38 900.96 925.99 C 911.54 928.26 922.36 929.07 933.03 930.74 C 934.63 930.67 936.18 930.24 937.75 929.92 C 936.25 927.03 932.68 927.81 930.05 927.14 C 922.53 925.67 915.20 923.43 907.86 921.30 C 897.90 917.75 887.51 915.46 877.82 911.19 C 869.80 907.69 861.38 905.16 853.48 901.42 C 845.92 897.18 837.30 895.42 829.79 891.11 C 823.89 887.80 817.44 885.69 811.50 882.47 C 806.12 879.72 800.73 877.00 795.10 874.80 C 787.14 870.30 778.83 866.45 770.79 862.09 C 763.92 857.80 756.22 855.04 749.45 850.58 C 745.34 847.82 740.70 846.04 736.52 843.43 C 722.48 835.29 708.46 827.09 694.48 818.90 C 691.66 816.42 688.17 814.96 685.05 812.96 C 673.54 806.29 662.60 798.72 651.19 791.89 C 645.62 788.50 640.54 784.38 634.92 781.08 C 626.56 775.31 617.61 770.43 609.55 764.24 C 598.25 756.68 586.97 749.11 575.96 741.14 C 564.50 732.54 552.21 725.06 541.00 716.10 C 525.35 704.81 509.48 693.75 494.47 681.61 C 482.92 673.57 471.95 664.75 460.74 656.27 C 457.64 653.93 454.99 650.86 451.28 649.46 C 448.89 645.89 444.99 643.93 441.75 641.29 C 433.18 634.50 424.45 627.91 415.96 621.03 C 395.66 604.00 374.52 587.98 354.51 570.62 C 326.14 546.61 297.53 522.86 270.15 497.72 C 237.68 469.32 206.58 439.41 175.32 409.69 C 157.70 391.00 139.73 372.62 122.67 353.41 C 98.86 326.32 75.46 298.67 55.72 268.43 C 47.75 256.46 42.47 242.98 35.58 230.43 C 35.18 230.21 34.39 229.79 33.99 229.57 L 32.46 229.71 M 436.95 440.54 C 437.33 440.59 438.09 440.69 438.47 440.74 C 438.48 440.35 438.49 439.56 438.49 439.16 C 437.28 438.80 436.77 439.26 436.95 440.54 M 342.31 620.85 C 338.29 624.00 335.05 627.94 331.85 631.89 C 315.86 649.33 302.37 669.07 292.27 690.48 C 284.81 704.56 279.31 719.62 275.48 735.07 C 271.09 753.74 269.37 772.90 268.17 792.00 C 268.80 803.77 269.19 816.00 274.27 826.87 C 276.80 832.50 279.89 838.47 285.53 841.54 C 289.85 844.13 293.75 847.84 298.88 848.75 C 302.88 849.68 306.66 851.34 310.58 852.55 C 319.10 854.13 327.59 855.97 336.04 857.94 C 341.78 858.27 347.23 860.30 352.94 860.88 C 359.32 862.26 365.95 862.34 372.17 864.43 C 377.50 863.85 382.72 865.64 388.05 865.89 C 391.71 865.92 395.40 868.36 398.96 866.73 C 405.87 868.49 413.08 868.06 420.03 869.59 C 425.31 867.82 430.60 871.50 435.82 869.66 C 441.99 870.67 448.29 870.25 454.44 871.44 C 455.96 871.82 457.44 871.13 458.89 870.75 C 466.27 871.79 473.83 871.00 481.12 872.69 C 482.47 872.20 483.80 871.59 485.23 871.34 C 487.87 871.52 490.39 873.23 493.09 872.45 C 497.00 871.55 501.00 872.26 504.96 872.29 C 513.27 872.58 521.59 872.59 529.87 873.30 C 532.51 872.51 535.28 871.77 537.94 873.03 C 541.34 874.89 544.65 871.12 548.05 872.70 C 550.31 873.59 552.74 874.15 555.03 872.97 C 557.92 871.41 560.78 873.65 563.72 873.72 C 565.86 873.40 567.87 872.51 570.03 872.23 C 572.08 872.51 573.98 873.48 576.05 873.74 C 578.15 873.43 580.13 872.55 582.25 872.27 C 584.30 872.31 586.20 873.27 588.22 873.57 C 590.50 873.44 592.62 872.43 594.90 872.28 C 597.62 872.03 600.15 873.68 602.87 873.23 C 612.52 872.13 622.30 872.82 631.92 871.35 C 634.64 870.91 637.18 872.80 639.90 872.20 C 645.88 871.30 651.94 871.01 657.98 870.73 C 672.02 870.40 686.01 869.22 700.00 867.99 C 705.29 867.42 710.73 867.59 715.83 865.83 C 708.84 861.72 701.83 857.46 694.21 854.55 C 690.83 853.18 687.75 851.23 684.62 849.40 C 678.12 845.79 671.18 843.01 664.84 839.11 C 658.91 835.61 652.41 833.18 646.64 829.40 C 642.04 826.37 637.05 824.04 632.15 821.59 C 627.80 819.44 623.92 815.80 618.83 815.70 C 598.24 814.16 577.58 814.04 556.98 812.64 C 543.42 812.06 529.89 810.68 516.34 810.28 C 472.48 806.86 428.70 802.37 384.92 797.94 C 359.88 795.23 334.83 792.42 310.02 788.02 C 307.17 787.71 304.22 785.71 301.49 786.40 C 298.40 793.38 293.52 799.25 289.50 805.68 C 289.10 805.98 288.32 806.59 287.93 806.89 C 289.25 797.95 293.23 789.79 296.73 781.56 C 303.37 769.91 311.48 759.18 319.64 748.56 C 341.50 721.33 366.11 696.38 392.54 673.59 C 394.66 671.64 397.47 670.32 398.98 667.79 C 398.92 666.30 397.51 665.32 396.55 664.38 C 378.23 650.19 359.76 636.13 342.31 620.85 M 748.55 625.62 C 748.98 629.61 751.08 633.12 752.00 636.99 C 763.75 678.46 770.50 721.20 775.05 764.00 C 777.75 774.10 777.11 784.63 778.52 794.91 C 777.29 800.26 776.79 805.78 778.01 811.21 C 782.98 812.21 787.90 810.21 792.90 810.45 C 798.28 810.60 803.55 809.08 808.93 809.43 C 808.93 809.87 808.94 810.75 808.95 811.19 C 790.39 813.73 771.74 816.05 752.98 816.17 C 737.37 816.50 721.76 816.65 706.16 817.10 C 714.56 823.28 723.91 828.02 732.97 833.14 C 740.60 838.40 749.19 842.02 756.99 847.00 C 761.05 849.82 765.91 851.17 770.01 853.95 C 774.00 855.87 777.82 858.35 782.09 859.62 C 794.42 857.61 806.80 855.73 818.99 852.99 C 823.48 850.90 828.61 851.13 833.06 848.96 C 836.55 847.26 840.61 847.01 843.90 844.86 C 849.14 841.58 855.77 839.54 858.66 833.56 C 861.33 827.43 861.07 820.45 859.99 813.98 C 858.98 802.99 855.51 792.43 851.96 782.05 C 849.09 775.82 848.21 768.91 845.06 762.80 C 840.44 753.09 837.15 742.75 831.51 733.54 C 828.59 728.92 826.68 723.76 823.87 719.09 C 817.16 708.21 810.80 697.10 803.15 686.84 C 794.54 674.27 786.02 661.54 775.59 650.38 C 769.69 643.58 763.77 636.71 756.50 631.33 L 756.50 630.99 C 754.04 628.93 751.44 627.03 748.55 625.62 M 396.39 679.33 C 391.50 684.15 385.90 688.16 381.25 693.23 C 371.21 702.12 361.49 711.44 352.62 721.51 C 334.95 740.16 318.46 760.11 304.78 781.92 C 341.74 788.21 379.07 791.68 416.25 795.62 C 436.55 797.43 456.77 799.77 477.09 801.33 C 481.97 802.47 487.06 801.57 491.94 802.89 C 498.71 802.68 505.30 804.39 512.08 804.10 C 517.99 805.57 524.12 804.40 530.04 805.75 C 534.46 806.41 538.97 805.52 543.38 806.42 C 548.90 807.68 554.61 806.37 560.16 807.45 C 566.39 808.70 572.80 807.35 579.06 808.43 C 586.66 809.76 594.44 808.30 602.06 809.46 C 604.78 809.92 607.55 810.04 610.32 809.92 C 553.54 778.50 499.83 741.88 447.43 703.70 C 433.33 693.25 419.03 683.03 405.41 671.97 C 401.98 673.87 399.66 677.19 396.39 679.33 M 869.42 694.81 C 877.57 704.76 885.51 715.05 891.48 726.47 C 895.22 731.86 898.63 737.47 901.75 743.24 C 904.42 747.33 907.12 751.45 908.91 756.04 C 911.50 763.10 915.77 769.40 918.32 776.48 C 922.21 787.11 926.61 797.55 930.18 808.30 C 929.38 809.91 930.57 811.44 930.95 813.00 C 935.20 827.37 938.70 842.04 940.05 857.00 C 940.64 867.67 941.31 878.37 940.45 889.05 C 940.36 900.05 938.34 911.12 933.31 920.97 C 935.18 921.33 937.08 921.78 938.98 922.06 C 951.56 923.53 964.22 925.70 976.92 924.41 C 986.49 923.69 996.77 922.77 1004.65 916.71 C 1011.42 912.31 1016.25 905.26 1018.20 897.45 C 1017.74 894.99 1018.43 892.54 1018.63 890.10 C 1019.35 884.67 1018.31 879.24 1017.71 873.86 C 1016.30 862.10 1010.56 851.56 1006.08 840.79 C 1000.52 831.14 995.70 820.98 988.76 812.20 C 973.88 790.18 956.51 769.95 937.77 751.13 C 918.46 732.34 898.44 714.13 876.26 698.74 C 873.98 697.50 872.27 694.11 869.42 694.81 Z" />
<path fill="#010101" opacity="1.00" d=" M 862.38 398.51 C 867.91 395.95 874.15 396.92 880.03 397.05 C 889.45 398.31 898.97 400.12 907.61 404.25 C 913.29 406.90 918.89 410.99 920.78 417.25 C 921.38 422.03 921.23 427.01 919.33 431.51 C 918.95 432.51 918.58 433.51 918.20 434.51 C 918.10 435.06 917.89 436.15 917.79 436.69 C 918.45 436.94 919.78 437.44 920.45 437.69 C 927.27 440.76 933.64 444.78 939.27 449.73 C 941.07 451.62 942.07 454.11 943.49 456.29 C 945.45 453.44 948.38 451.61 951.46 450.18 C 958.76 447.85 966.85 450.70 971.66 456.51 C 979.19 465.62 984.61 476.87 985.35 488.78 C 986.60 495.34 986.18 502.32 983.67 508.53 C 981.18 514.28 974.70 516.38 968.99 517.20 C 969.56 525.18 967.41 533.04 964.69 540.47 C 964.19 542.17 962.96 543.48 961.77 544.72 C 965.19 547.70 969.59 550.17 970.90 554.85 C 973.87 563.70 968.91 572.74 963.59 579.59 C 956.76 587.46 949.94 595.85 940.51 600.73 C 937.24 602.54 933.39 602.63 929.78 602.24 C 927.71 600.91 925.67 599.55 923.40 598.59 C 921.29 596.78 920.25 594.09 919.15 591.63 C 917.75 592.84 916.27 593.95 914.60 594.75 C 911.12 595.86 908.93 598.96 905.88 600.78 C 903.57 602.32 901.01 603.40 898.61 604.78 C 897.12 605.43 895.60 606.00 894.04 606.41 C 894.32 610.78 894.14 615.56 891.09 619.04 C 886.98 623.46 880.75 624.79 875.05 625.81 C 870.37 626.17 865.77 627.34 861.05 627.03 C 855.68 627.35 850.43 626.16 845.13 625.66 C 837.29 624.32 828.37 622.43 823.73 615.26 C 819.58 610.11 821.23 603.25 821.01 597.19 C 819.09 595.59 817.02 594.06 814.47 593.75 C 807.45 590.39 801.53 584.99 796.69 578.98 C 794.96 582.47 790.53 583.11 787.03 583.26 C 777.99 584.01 769.68 578.47 764.41 571.53 C 756.52 560.02 752.07 545.75 753.67 531.76 C 754.88 526.79 757.92 521.81 762.76 519.70 C 765.68 518.29 768.89 517.64 772.04 516.98 C 771.49 515.85 771.02 514.69 770.63 513.51 C 768.46 506.88 769.01 499.89 768.97 493.03 C 768.94 489.69 770.35 486.60 771.12 483.41 C 766.91 480.00 763.06 475.44 762.69 469.80 C 762.10 461.68 765.99 454.07 770.50 447.58 C 777.93 436.47 789.49 428.37 802.06 424.13 C 810.31 420.99 820.78 424.96 824.32 433.16 C 830.05 426.72 839.04 425.06 846.98 422.91 C 845.83 412.44 853.04 402.57 862.38 398.51 M 859.42 410.44 C 855.70 415.65 855.70 422.32 853.01 428.00 C 845.59 430.46 838.70 434.13 831.76 437.65 C 828.86 439.43 825.44 438.28 822.32 438.06 C 818.87 434.85 814.99 431.31 809.99 431.21 C 804.39 431.77 799.37 434.66 794.60 437.43 C 790.01 440.75 785.09 443.90 781.66 448.51 C 777.98 453.28 773.97 458.13 772.66 464.18 C 771.56 467.61 772.61 471.45 775.13 473.98 C 777.43 476.28 780.22 479.60 777.98 482.93 C 774.68 485.94 775.62 490.83 775.18 494.87 C 775.85 502.99 776.50 511.19 778.45 519.13 C 776.57 520.22 774.40 520.45 772.38 521.11 C 769.94 522.77 767.41 524.29 764.95 525.90 C 761.68 528.52 761.59 533.17 761.19 536.99 C 762.06 546.99 765.61 556.70 770.93 565.19 C 774.10 570.69 780.05 574.13 786.05 575.69 C 789.89 574.59 793.59 572.88 797.55 572.31 C 803.37 576.86 808.25 582.59 814.56 586.54 C 818.38 589.38 822.92 591.38 826.14 594.97 C 830.83 600.16 827.36 609.11 833.62 613.26 C 844.25 618.33 856.53 619.20 868.14 618.41 C 873.70 617.89 879.62 617.53 884.52 614.56 C 888.23 611.47 887.04 606.17 888.06 601.98 C 889.22 600.14 891.63 599.68 893.49 598.77 C 897.66 597.35 901.37 594.90 905.50 593.40 C 909.36 592.20 911.73 588.49 915.59 587.27 C 917.11 586.78 918.86 585.60 920.39 586.77 C 923.14 588.40 926.03 590.16 927.55 593.10 C 928.50 595.57 931.65 596.17 933.91 595.28 C 939.74 593.22 944.11 588.64 948.63 584.64 C 955.35 577.47 962.59 569.93 964.59 559.95 C 963.91 557.44 963.24 554.59 961.07 552.94 C 958.90 551.30 956.49 550.01 954.15 548.65 C 956.96 542.77 958.24 536.30 959.86 530.02 C 961.44 524.08 961.28 517.86 962.86 511.92 C 966.02 510.29 969.07 508.43 972.58 507.63 C 976.66 506.53 976.35 501.74 977.37 498.49 C 976.44 487.11 974.22 475.21 967.19 465.80 C 964.04 461.59 959.88 456.21 953.89 457.49 C 949.70 457.69 946.89 461.30 943.22 462.61 C 939.74 459.51 934.92 458.62 931.62 455.29 C 925.85 449.94 919.81 444.81 912.91 440.97 C 911.06 434.91 913.69 428.91 914.76 422.99 C 914.33 418.77 911.23 415.17 907.55 413.28 C 896.71 407.28 884.15 406.19 872.13 404.62 C 867.47 405.40 862.78 406.98 859.42 410.44 Z" />
<path fill="#010101" opacity="1.00" d=" M 842.18 487.19 C 853.02 479.05 868.26 475.41 880.99 481.18 C 897.06 487.90 909.99 503.32 911.31 521.00 C 910.34 526.71 909.62 533.01 905.62 537.51 C 903.67 539.68 902.60 542.46 900.69 544.64 C 895.80 548.57 890.49 551.96 885.14 555.23 C 880.71 558.36 875.14 559.07 869.91 559.85 C 857.28 559.15 845.69 552.75 836.26 544.63 C 832.45 539.77 827.97 535.01 826.47 528.83 C 824.05 520.48 825.35 511.38 828.71 503.48 C 832.30 497.42 836.29 491.27 842.18 487.19 M 864.11 488.05 C 854.04 489.25 845.47 495.72 839.87 503.90 C 835.94 510.00 833.64 517.49 835.35 524.72 C 838.17 534.07 845.83 541.18 854.38 545.46 C 858.35 547.38 862.43 549.77 866.99 549.64 C 870.49 549.48 874.34 550.29 877.51 548.37 C 884.02 545.35 889.44 540.34 893.49 534.45 C 898.34 528.44 900.74 520.60 900.88 512.98 C 896.91 502.94 888.62 494.82 878.79 490.42 C 874.23 488.47 869.07 486.67 864.11 488.05 Z" />
<path fill="#010101" opacity="1.00" d=" M 48.22 600.28 C 58.89 583.96 77.78 574.12 96.96 572.44 C 102.34 572.44 107.73 572.34 113.11 572.50 C 127.12 574.25 140.92 579.10 152.23 587.69 C 165.22 597.16 174.38 611.95 176.36 627.97 C 176.59 636.71 176.91 645.69 173.79 654.03 C 169.77 667.27 160.77 678.72 149.55 686.66 C 145.76 689.57 140.91 690.97 137.76 694.72 C 133.42 699.48 127.19 701.73 121.12 703.34 C 116.07 703.52 110.98 703.71 105.93 703.29 C 88.31 700.04 71.62 691.63 58.54 679.38 C 48.32 669.74 40.99 656.80 39.12 642.79 C 36.98 628.16 39.98 612.66 48.22 600.28 M 104.19 582.22 C 95.41 582.96 86.26 583.77 78.46 588.25 C 72.86 590.67 68.21 594.68 63.47 598.41 C 59.69 603.17 55.67 607.87 53.22 613.50 C 50.44 618.58 49.96 624.45 49.30 630.09 C 48.31 634.92 49.66 639.78 50.18 644.59 C 53.05 657.66 61.94 668.56 72.19 676.78 C 82.47 684.53 94.24 690.60 106.94 693.11 C 116.90 695.14 126.99 691.99 135.84 687.54 C 140.01 685.57 143.19 682.08 147.28 679.99 C 149.35 678.94 151.55 677.92 153.02 676.06 C 156.95 671.22 160.50 666.07 163.47 660.60 C 167.48 651.22 169.93 640.82 168.09 630.62 C 166.99 619.26 160.38 609.42 153.04 601.08 C 148.00 597.30 143.42 592.77 137.55 590.27 C 127.46 584.52 115.67 582.50 104.19 582.22 Z" />
</g>
<g id="#3ecdfdff">
<path fill="#3ecdfd" opacity="1.00" d=" M 340.15 124.24 C 346.63 124.60 353.26 126.53 358.46 130.53 C 370.03 140.81 367.15 162.53 353.19 169.30 C 348.00 172.04 342.17 169.80 337.09 168.00 C 333.07 165.80 329.41 162.94 325.84 160.11 C 322.22 155.78 319.26 149.94 320.53 144.16 C 321.53 138.08 324.09 131.89 329.00 127.95 C 332.09 125.33 336.23 124.54 340.15 124.24 Z" />
</g>
<g id="#fea60dff">
<path fill="#fea60d" opacity="1.00" d=" M 54.48 156.26 C 70.02 149.30 87.12 146.97 103.98 146.16 C 128.51 146.82 152.72 151.12 176.95 154.59 C 189.79 157.02 202.39 160.50 215.11 163.43 C 227.85 165.77 239.74 171.09 252.17 174.55 C 259.24 176.24 265.62 179.85 272.44 182.30 C 275.81 184.04 279.98 184.23 282.88 186.84 C 282.50 187.24 281.74 188.03 281.36 188.43 C 262.54 183.88 243.25 181.48 223.96 179.96 C 206.99 179.20 190.01 178.42 173.03 178.07 C 153.54 178.79 134.02 179.07 114.59 180.83 C 101.48 182.60 87.96 182.82 75.49 187.70 C 67.86 190.63 59.49 192.60 53.28 198.21 C 47.30 202.12 43.95 208.68 41.05 214.98 C 39.58 218.13 39.45 221.65 38.81 225.01 C 33.86 217.49 31.12 208.80 29.43 200.02 C 28.98 197.00 30.13 194.07 30.59 191.12 C 31.64 186.27 31.75 181.21 33.35 176.48 C 37.54 167.34 45.78 160.86 54.48 156.26 Z" />
<path fill="#fea60d" opacity="1.00" d=" M 32.46 229.71 L 33.99 229.57 C 34.39 229.79 35.18 230.21 35.58 230.43 C 42.47 242.98 47.75 256.46 55.72 268.43 C 75.46 298.67 98.86 326.32 122.67 353.41 C 139.73 372.62 157.70 391.00 175.32 409.69 C 206.58 439.41 237.68 469.32 270.15 497.72 C 297.53 522.86 326.14 546.61 354.51 570.62 C 374.52 587.98 395.66 604.00 415.96 621.03 C 424.45 627.91 433.18 634.50 441.75 641.29 C 444.99 643.93 448.89 645.89 451.28 649.46 C 454.99 650.86 457.64 653.93 460.74 656.27 C 471.95 664.75 482.92 673.57 494.47 681.61 C 509.48 693.75 525.35 704.81 541.00 716.10 C 552.21 725.06 564.50 732.54 575.96 741.14 C 586.97 749.11 598.25 756.68 609.55 764.24 C 617.61 770.43 626.56 775.31 634.92 781.08 C 640.54 784.38 645.62 788.50 651.19 791.89 C 662.60 798.72 673.54 806.29 685.05 812.96 C 688.17 814.96 691.66 816.42 694.48 818.90 C 708.46 827.09 722.48 835.29 736.52 843.43 C 740.70 846.04 745.34 847.82 749.45 850.58 C 756.22 855.04 763.92 857.80 770.79 862.09 C 778.83 866.45 787.14 870.30 795.10 874.80 C 800.73 877.00 806.12 879.72 811.50 882.47 C 817.44 885.69 823.89 887.80 829.79 891.11 C 837.30 895.42 845.92 897.18 853.48 901.42 C 861.38 905.16 869.80 907.69 877.82 911.19 C 887.51 915.46 897.90 917.75 907.86 921.30 C 915.20 923.43 922.53 925.67 930.05 927.14 C 932.68 927.81 936.25 927.03 937.75 929.92 C 936.18 930.24 934.63 930.67 933.03 930.74 C 922.36 929.07 911.54 928.26 900.96 925.99 C 888.99 923.38 876.74 922.04 865.10 918.09 C 853.85 914.41 842.24 912.05 831.10 908.04 C 819.24 903.34 806.82 900.16 795.19 894.88 C 789.77 892.39 783.84 891.20 778.55 888.42 C 770.73 884.75 762.54 881.95 754.80 878.11 C 749.57 876.23 744.87 873.20 739.74 871.09 C 732.37 868.15 725.62 863.86 718.31 860.81 C 713.17 858.82 708.27 856.24 703.59 853.35 C 695.33 848.90 686.65 845.23 678.59 840.40 C 672.98 838.17 668.02 834.66 662.50 832.24 C 656.26 828.31 649.44 825.46 643.17 821.60 C 634.22 817.47 626.12 811.75 617.18 807.60 C 611.49 804.50 606.32 800.49 600.45 797.71 C 593.34 794.40 587.16 789.49 580.21 785.93 C 572.39 780.99 564.09 776.85 556.72 771.26 C 544.12 764.21 532.54 755.52 520.35 747.79 C 515.68 745.19 511.39 742.01 507.08 738.89 C 495.45 730.83 483.79 722.82 472.12 714.82 C 457.67 703.56 442.34 693.47 427.90 682.21 C 412.21 669.47 395.14 658.45 380.25 644.74 C 367.55 634.48 354.69 624.40 342.39 613.65 C 337.71 611.10 334.02 607.21 329.96 603.84 C 303.26 580.32 276.38 556.99 250.67 532.39 C 220.06 504.14 193.64 471.82 166.35 440.47 C 153.62 425.81 141.93 410.29 130.07 394.94 C 121.23 384.29 113.09 373.10 105.07 361.84 C 101.07 355.36 95.52 349.90 92.43 342.87 C 82.84 325.96 72.02 309.79 62.44 292.86 C 59.46 286.26 54.97 280.45 52.27 273.71 C 48.81 265.84 44.04 258.53 41.57 250.26 C 38.93 243.23 34.94 236.80 32.46 229.71 Z" />
<path fill="#fea60d" opacity="1.00" d=" M 869.42 694.81 C 872.27 694.11 873.98 697.50 876.26 698.74 C 898.44 714.13 918.46 732.34 937.77 751.13 C 956.51 769.95 973.88 790.18 988.76 812.20 C 995.70 820.98 1000.52 831.14 1006.08 840.79 C 1010.56 851.56 1016.30 862.10 1017.71 873.86 C 1018.31 879.24 1019.35 884.67 1018.63 890.10 C 1018.43 892.54 1017.74 894.99 1018.20 897.45 C 1016.25 905.26 1011.42 912.31 1004.65 916.71 C 996.77 922.77 986.49 923.69 976.92 924.41 C 964.22 925.70 951.56 923.53 938.98 922.06 C 937.08 921.78 935.18 921.33 933.31 920.97 C 938.34 911.12 940.36 900.05 940.45 889.05 C 941.31 878.37 940.64 867.67 940.05 857.00 C 938.70 842.04 935.20 827.37 930.95 813.00 C 930.57 811.44 929.38 809.91 930.18 808.30 C 926.61 797.55 922.21 787.11 918.32 776.48 C 915.77 769.40 911.50 763.10 908.91 756.04 C 907.12 751.45 904.42 747.33 901.75 743.24 C 898.63 737.47 895.22 731.86 891.48 726.47 C 885.51 715.05 877.57 704.76 869.42 694.81 Z" />
</g>
<g id="#007e60ff">
<path fill="#007e60" opacity="1.00" d=" M 572.97 211.99 C 578.97 211.52 585.39 210.15 591.08 212.77 C 592.50 213.94 594.44 213.92 595.88 212.77 C 600.20 210.17 605.30 211.71 609.96 212.07 C 627.11 212.88 644.31 213.06 661.39 214.89 L 662.19 215.70 C 663.03 216.92 665.05 216.94 665.83 215.62 L 666.67 214.60 C 681.25 217.62 696.37 216.93 710.82 220.66 C 711.34 220.40 712.39 219.89 712.91 219.63 C 726.48 223.23 740.86 222.88 754.14 227.59 C 755.19 228.17 756.40 228.57 757.63 228.21 C 763.95 227.91 769.85 231.06 775.92 232.50 C 786.87 234.85 797.15 239.62 806.81 245.18 C 814.01 249.26 819.50 256.65 820.23 265.02 C 821.50 272.01 820.17 279.06 818.98 285.96 C 816.55 299.98 812.23 313.63 806.96 326.82 C 802.15 336.80 797.47 346.91 791.15 356.04 C 779.93 372.84 765.84 387.41 752.20 402.21 C 736.62 416.63 721.15 431.20 704.83 444.80 C 649.91 491.63 589.99 532.05 529.93 571.87 C 500.41 591.30 471.51 611.63 443.02 632.52 C 433.50 625.58 424.57 617.90 415.17 610.82 C 410.53 607.25 406.21 603.29 401.70 599.58 C 401.61 599.51 401.43 599.37 401.34 599.30 C 395.27 594.18 387.49 590.71 383.14 583.85 C 413.47 559.17 444.49 535.16 478.14 515.13 C 499.60 502.36 520.89 489.30 541.92 475.85 C 575.66 453.38 610.12 431.64 640.47 404.59 C 655.35 391.84 670.82 379.62 683.93 364.98 C 692.01 356.34 699.17 346.88 706.96 337.98 C 715.19 328.77 723.05 319.22 730.02 309.01 C 732.11 305.79 736.20 302.07 734.00 297.93 C 733.09 294.87 729.47 294.30 726.82 293.60 C 702.35 289.54 677.74 286.38 653.08 283.69 C 612.83 279.83 572.41 278.12 532.01 276.59 C 512.67 275.56 493.29 276.55 473.98 277.71 C 447.74 279.59 421.69 283.39 395.50 285.73 C 387.21 286.85 378.72 287.23 370.72 289.86 C 368.55 287.11 368.37 283.53 367.66 280.24 C 366.81 276.14 366.02 272.03 365.33 267.90 C 364.84 265.68 364.59 263.22 363.00 261.47 C 357.93 256.00 350.45 252.64 342.97 252.91 C 338.85 252.98 335.42 256.12 333.69 259.66 C 328.48 272.98 329.54 288.03 334.72 301.21 C 341.77 318.84 352.10 334.87 362.25 350.82 C 373.40 366.85 384.91 382.63 397.11 397.87 C 405.51 408.38 413.99 418.90 423.71 428.23 C 423.69 428.79 423.64 429.92 423.62 430.48 C 389.73 407.28 357.97 381.09 328.06 352.97 C 318.29 344.07 309.23 334.42 300.46 324.54 C 299.01 322.63 296.90 321.04 296.23 318.66 C 296.12 317.58 295.54 316.92 294.48 316.68 C 292.62 316.05 291.75 314.07 290.56 312.67 C 290.50 312.60 290.39 312.45 290.33 312.38 C 288.41 309.85 286.44 307.38 284.73 304.71 C 284.65 304.60 284.50 304.38 284.43 304.27 C 283.04 302.11 281.14 300.16 280.41 297.67 C 280.12 297.23 279.54 296.35 279.25 295.91 C 275.75 290.89 273.76 284.97 272.70 278.97 C 271.73 275.87 273.08 272.77 273.81 269.79 C 275.37 263.02 280.31 257.82 284.88 252.88 C 292.08 246.42 300.42 241.18 309.39 237.57 C 312.31 236.68 315.19 235.06 318.31 235.28 C 319.37 235.50 320.22 235.18 320.86 234.30 C 323.16 231.68 327.08 232.14 330.17 231.12 C 340.86 229.37 351.40 225.83 362.35 226.37 C 363.59 226.68 364.84 226.32 365.90 225.64 C 372.96 223.67 380.58 224.06 387.88 223.18 C 402.55 221.30 417.36 221.01 432.07 219.41 C 442.33 218.28 452.72 218.79 462.94 217.21 C 477.28 215.94 491.71 215.83 506.06 214.71 C 528.28 212.24 550.67 212.83 572.97 211.99 Z" />
<path fill="#007e60" opacity="1.00" d=" M 342.31 620.85 C 359.76 636.13 378.23 650.19 396.55 664.38 C 397.51 665.32 398.92 666.30 398.98 667.79 C 397.47 670.32 394.66 671.64 392.54 673.59 C 366.11 696.38 341.50 721.33 319.64 748.56 C 311.48 759.18 303.37 769.91 296.73 781.56 C 293.23 789.79 289.25 797.95 287.93 806.89 C 288.32 806.59 289.10 805.98 289.50 805.68 C 300.57 807.07 311.75 805.22 322.84 806.43 C 332.55 807.54 342.34 806.63 352.08 807.15 C 367.00 808.91 382.04 807.49 397.02 808.14 C 416.96 809.82 437.00 808.47 456.97 809.17 C 461.96 809.61 466.94 810.23 471.96 809.98 C 478.02 809.67 483.98 811.24 490.04 811.03 C 498.81 810.78 507.62 811.45 516.34 810.28 C 529.89 810.68 543.42 812.06 556.98 812.64 C 577.58 814.04 598.24 814.16 618.83 815.70 C 623.92 815.80 627.80 819.44 632.15 821.59 C 637.05 824.04 642.04 826.37 646.64 829.40 C 652.41 833.18 658.91 835.61 664.84 839.11 C 671.18 843.01 678.12 845.79 684.62 849.40 C 687.75 851.23 690.83 853.18 694.21 854.55 C 701.83 857.46 708.84 861.72 715.83 865.83 C 710.73 867.59 705.29 867.42 700.00 867.99 C 686.01 869.22 672.02 870.40 657.98 870.73 C 651.94 871.01 645.88 871.30 639.90 872.20 C 637.18 872.80 634.64 870.91 631.92 871.35 C 622.30 872.82 612.52 872.13 602.87 873.23 C 600.15 873.68 597.62 872.03 594.90 872.28 C 592.62 872.43 590.50 873.44 588.22 873.57 C 586.20 873.27 584.30 872.31 582.25 872.27 C 580.13 872.55 578.15 873.43 576.05 873.74 C 573.98 873.48 572.08 872.51 570.03 872.23 C 567.87 872.51 565.86 873.40 563.72 873.72 C 560.78 873.65 557.92 871.41 555.03 872.97 C 552.74 874.15 550.31 873.59 548.05 872.70 C 544.65 871.12 541.34 874.89 537.94 873.03 C 535.28 871.77 532.51 872.51 529.87 873.30 C 521.59 872.59 513.27 872.58 504.96 872.29 C 501.00 872.26 497.00 871.55 493.09 872.45 C 490.39 873.23 487.87 871.52 485.23 871.34 C 483.80 871.59 482.47 872.20 481.12 872.69 C 473.83 871.00 466.27 871.79 458.89 870.75 C 457.44 871.13 455.96 871.82 454.44 871.44 C 448.29 870.25 441.99 870.67 435.82 869.66 C 430.60 871.50 425.31 867.82 420.03 869.59 C 413.08 868.06 405.87 868.49 398.96 866.73 C 395.40 868.36 391.71 865.92 388.05 865.89 C 382.72 865.64 377.50 863.85 372.17 864.43 C 365.95 862.34 359.32 862.26 352.94 860.88 C 347.23 860.30 341.78 858.27 336.04 857.94 C 327.59 855.97 319.10 854.13 310.58 852.55 C 306.66 851.34 302.88 849.68 298.88 848.75 C 293.75 847.84 289.85 844.13 285.53 841.54 C 279.89 838.47 276.80 832.50 274.27 826.87 C 269.19 816.00 268.80 803.77 268.17 792.00 C 269.37 772.90 271.09 753.74 275.48 735.07 C 279.31 719.62 284.81 704.56 292.27 690.48 C 302.37 669.07 315.86 649.33 331.85 631.89 C 335.05 627.94 338.29 624.00 342.31 620.85 Z" />
<path fill="#007e60" opacity="1.00" d=" M 760.07 639.91 C 758.52 637.24 755.97 634.67 756.50 631.33 C 763.77 636.71 769.69 643.58 775.59 650.38 C 786.02 661.54 794.54 674.27 803.15 686.84 C 810.80 697.10 817.16 708.21 823.87 719.09 C 826.68 723.76 828.59 728.92 831.51 733.54 C 837.15 742.75 840.44 753.09 845.06 762.80 C 848.21 768.91 849.09 775.82 851.96 782.05 C 855.51 792.43 858.98 802.99 859.99 813.98 C 861.07 820.45 861.33 827.43 858.66 833.56 C 855.77 839.54 849.14 841.58 843.90 844.86 C 840.61 847.01 836.55 847.26 833.06 848.96 C 828.61 851.13 823.48 850.90 818.99 852.99 C 806.80 855.73 794.42 857.61 782.09 859.62 C 777.82 858.35 774.00 855.87 770.01 853.95 C 765.91 851.17 761.05 849.82 756.99 847.00 C 749.19 842.02 740.60 838.40 732.97 833.14 C 723.91 828.02 714.56 823.28 706.16 817.10 C 721.76 816.65 737.37 816.50 752.98 816.17 C 771.74 816.05 790.39 813.73 808.95 811.19 C 808.94 810.75 808.93 809.87 808.93 809.43 C 808.77 803.97 809.26 798.51 809.00 793.06 C 805.47 749.15 794.24 705.75 774.96 666.10 C 770.22 657.24 765.22 648.53 760.07 639.91 Z" />
</g>
<g id="#006a4cff">
<path fill="#006a4c" opacity="1.00" d=" M 591.08 212.77 C 592.40 211.83 594.54 211.82 595.88 212.77 C 594.44 213.92 592.50 213.94 591.08 212.77 Z" />
<path fill="#006a4c" opacity="1.00" d=" M 662.19 215.70 C 663.37 214.78 664.58 214.75 665.83 215.62 C 665.05 216.94 663.03 216.92 662.19 215.70 Z" />
<path fill="#006a4c" opacity="1.00" d=" M 362.35 226.37 C 362.06 224.62 365.12 224.42 365.90 225.64 C 364.84 226.32 363.59 226.68 362.35 226.37 Z" />
<path fill="#006a4c" opacity="1.00" d=" M 754.14 227.59 C 754.83 226.30 757.98 226.41 757.63 228.21 C 756.40 228.57 755.19 228.17 754.14 227.59 Z" />
<path fill="#006a4c" opacity="1.00" d=" M 318.31 235.28 C 318.57 233.63 319.42 233.30 320.86 234.30 C 320.22 235.18 319.37 235.50 318.31 235.28 Z" />
<path fill="#006a4c" opacity="1.00" d=" M 333.69 259.66 C 335.42 256.12 338.85 252.98 342.97 252.91 C 350.45 252.64 357.93 256.00 363.00 261.47 C 362.76 262.76 362.23 264.08 362.51 265.42 C 364.89 278.67 364.42 292.69 370.30 305.08 C 374.65 325.56 381.51 345.47 390.56 364.35 C 394.57 372.01 398.03 379.96 402.49 387.38 C 409.61 399.97 417.97 411.77 426.34 423.55 C 429.97 428.18 433.19 433.16 437.22 437.47 C 436.63 438.06 436.05 438.66 435.48 439.27 C 431.93 435.83 427.42 433.44 423.62 430.48 C 423.64 429.92 423.69 428.79 423.71 428.23 C 413.99 418.90 405.51 408.38 397.11 397.87 C 384.91 382.63 373.40 366.85 362.25 350.82 C 352.10 334.87 341.77 318.84 334.72 301.21 C 329.54 288.03 328.48 272.98 333.69 259.66 Z" />
<path fill="#006a4c" opacity="1.00" d=" M 279.25 295.91 C 279.54 296.35 280.12 297.23 280.41 297.67 L 279.49 297.66 L 278.90 296.76 L 279.25 295.91 Z" />
<path fill="#006a4c" opacity="1.00" d=" M 284.43 304.27 C 284.50 304.38 284.65 304.60 284.73 304.71 C 284.65 304.60 284.50 304.38 284.43 304.27 Z" />
<path fill="#006a4c" opacity="1.00" d=" M 290.33 312.38 C 290.39 312.45 290.50 312.60 290.56 312.67 C 290.50 312.60 290.39 312.45 290.33 312.38 Z" />
<path fill="#006a4c" opacity="1.00" d=" M 294.48 316.68 C 295.54 316.92 296.12 317.58 296.23 318.66 C 294.56 318.97 293.98 318.31 294.48 316.68 Z" />
<path fill="#006a4c" opacity="1.00" d=" M 401.34 599.30 C 401.43 599.37 401.61 599.51 401.70 599.58 C 401.61 599.51 401.43 599.37 401.34 599.30 Z" />
<path fill="#006a4c" opacity="1.00" d=" M 748.55 625.62 C 751.44 627.03 754.04 628.93 756.50 630.99 L 756.50 631.33 C 755.97 634.67 758.52 637.24 760.07 639.91 C 765.22 648.53 770.22 657.24 774.96 666.10 C 794.24 705.75 805.47 749.15 809.00 793.06 C 809.26 798.51 808.77 803.97 808.93 809.43 C 803.55 809.08 798.28 810.60 792.90 810.45 C 787.90 810.21 782.98 812.21 778.01 811.21 C 776.79 805.78 777.29 800.26 778.52 794.91 C 777.11 784.63 777.75 774.10 775.05 764.00 C 770.50 721.20 763.75 678.46 752.00 636.99 C 751.08 633.12 748.98 629.61 748.55 625.62 Z" />
<path fill="#006a4c" opacity="1.00" d=" M 301.49 786.40 C 304.22 785.71 307.17 787.71 310.02 788.02 C 334.83 792.42 359.88 795.23 384.92 797.94 C 428.70 802.37 472.48 806.86 516.34 810.28 C 507.62 811.45 498.81 810.78 490.04 811.03 C 483.98 811.24 478.02 809.67 471.96 809.98 C 466.94 810.23 461.96 809.61 456.97 809.17 C 437.00 808.47 416.96 809.82 397.02 808.14 C 382.04 807.49 367.00 808.91 352.08 807.15 C 342.34 806.63 332.55 807.54 322.84 806.43 C 311.75 805.22 300.57 807.07 289.50 805.68 C 293.52 799.25 298.40 793.38 301.49 786.40 Z" />
</g>
<g id="#abe0f7ff">
<path fill="#abe0f7" opacity="1.00" d=" M 859.42 410.44 C 862.78 406.98 867.47 405.40 872.13 404.62 C 884.15 406.19 896.71 407.28 907.55 413.28 C 911.23 415.17 914.33 418.77 914.76 422.99 C 913.69 428.91 911.06 434.91 912.91 440.97 C 919.81 444.81 925.85 449.94 931.62 455.29 C 934.92 458.62 939.74 459.51 943.22 462.61 C 946.89 461.30 949.70 457.69 953.89 457.49 C 959.88 456.21 964.04 461.59 967.19 465.80 C 974.22 475.21 976.44 487.11 977.37 498.49 C 976.35 501.74 976.66 506.53 972.58 507.63 C 969.07 508.43 966.02 510.29 962.86 511.92 C 961.28 517.86 961.44 524.08 959.86 530.02 C 958.24 536.30 956.96 542.77 954.15 548.65 C 956.49 550.01 958.90 551.30 961.07 552.94 C 963.24 554.59 963.91 557.44 964.59 559.95 C 962.59 569.93 955.35 577.47 948.63 584.64 C 944.11 588.64 939.74 593.22 933.91 595.28 C 931.65 596.17 928.50 595.57 927.55 593.10 C 926.03 590.16 923.14 588.40 920.39 586.77 C 918.86 585.60 917.11 586.78 915.59 587.27 C 911.73 588.49 909.36 592.20 905.50 593.40 C 901.37 594.90 897.66 597.35 893.49 598.77 C 891.63 599.68 889.22 600.14 888.06 601.98 C 887.04 606.17 888.23 611.47 884.52 614.56 C 879.62 617.53 873.70 617.89 868.14 618.41 C 856.53 619.20 844.25 618.33 833.62 613.26 C 827.36 609.11 830.83 600.16 826.14 594.97 C 822.92 591.38 818.38 589.38 814.56 586.54 C 808.25 582.59 803.37 576.86 797.55 572.31 C 793.59 572.88 789.89 574.59 786.05 575.69 C 780.05 574.13 774.10 570.69 770.93 565.19 C 765.61 556.70 762.06 546.99 761.19 536.99 C 761.59 533.17 761.68 528.52 764.95 525.90 C 767.41 524.29 769.94 522.77 772.38 521.11 C 774.40 520.45 776.57 520.22 778.45 519.13 C 776.50 511.19 775.85 502.99 775.18 494.87 C 775.62 490.83 774.68 485.94 777.98 482.93 C 780.22 479.60 777.43 476.28 775.13 473.98 C 772.61 471.45 771.56 467.61 772.66 464.18 C 773.97 458.13 777.98 453.28 781.66 448.51 C 785.09 443.90 790.01 440.75 794.60 437.43 C 799.37 434.66 804.39 431.77 809.99 431.21 C 814.99 431.31 818.87 434.85 822.32 438.06 C 825.44 438.28 828.86 439.43 831.76 437.65 C 838.70 434.13 845.59 430.46 853.01 428.00 C 855.70 422.32 855.70 415.65 859.42 410.44 M 842.18 487.19 C 836.29 491.27 832.30 497.42 828.71 503.48 C 825.35 511.38 824.05 520.48 826.47 528.83 C 827.97 535.01 832.45 539.77 836.26 544.63 C 845.69 552.75 857.28 559.15 869.91 559.85 C 875.14 559.07 880.71 558.36 885.14 555.23 C 890.49 551.96 895.80 548.57 900.69 544.64 C 902.60 542.46 903.67 539.68 905.62 537.51 C 909.62 533.01 910.34 526.71 911.31 521.00 C 909.99 503.32 897.06 487.90 880.99 481.18 C 868.26 475.41 853.02 479.05 842.18 487.19 Z" />
</g>
<g id="#b03ffeff">
<path fill="#b03ffe" opacity="1.00" d=" M 104.19 582.22 C 115.67 582.50 127.46 584.52 137.55 590.27 C 143.42 592.77 148.00 597.30 153.04 601.08 C 160.38 609.42 166.99 619.26 168.09 630.62 C 169.93 640.82 167.48 651.22 163.47 660.60 C 160.50 666.07 156.95 671.22 153.02 676.06 C 151.55 677.92 149.35 678.94 147.28 679.99 C 143.19 682.08 140.01 685.57 135.84 687.54 C 126.99 691.99 116.90 695.14 106.94 693.11 C 94.24 690.60 82.47 684.53 72.19 676.78 C 61.94 668.56 53.05 657.66 50.18 644.59 C 49.66 639.78 48.31 634.92 49.30 630.09 C 49.96 624.45 50.44 618.58 53.22 613.50 C 55.67 607.87 59.69 603.17 63.47 598.41 C 68.21 594.68 72.86 590.67 78.46 588.25 C 86.26 583.77 95.41 582.96 104.19 582.22 Z" />
</g>
</svg>
